<svg width="804" height="394" viewBox="0 0 804 394" fill="none" xmlns="http://www.w3.org/2000/svg">
<g clip-path="url(#clip0)">
<path d="M502.333 282.423C493.012 282.423 483.348 275.334 478.329 263.908C477.344 261.674 476.598 259.349 476.107 256.966H326.486C325.995 259.349 325.252 261.669 324.272 263.908C317.974 278.228 304.4 285.767 293.321 281.008C288.871 279.105 285.483 275.481 283.524 270.528C280.777 263.572 281.235 254.962 284.778 246.908C286.975 241.902 290.294 237.488 294.267 234.222C290.413 193.92 285.621 101.319 313.948 38.8478C311.95 37.5881 310.08 36.1065 308.365 34.4112C302.71 28.8369 299.339 21.645 299.339 15.1718C299.339 10.7878 300.832 7.0032 303.646 4.22856C310.843 -2.87732 324.206 -0.829626 334.05 8.88442C336.864 11.6535 338.634 15.9071 339.941 19.4059H454.683C456.426 15.9598 459.14 11.573 461.867 8.88442C471.717 -0.8324 485.08 -2.86899 492.274 4.22856C495.091 7.0032 496.578 10.7934 496.578 15.1773C496.578 21.645 493.207 28.8397 487.558 34.4112C487.344 34.6193 487.13 34.8301 486.908 35.0382C517.163 97.4179 512.282 192.882 508.329 234.222C512.299 237.49 515.62 241.905 517.818 246.91C521.358 254.965 521.813 263.572 519.066 270.525C517.11 275.478 513.725 279.105 509.275 281.008C507.033 281.968 504.694 282.423 502.333 282.423ZM322.286 247.268H480.307C482.841 247.268 484.947 249.219 485.141 251.744C485.366 254.613 486.056 257.393 487.205 260.007C491.198 269.088 499.569 274.604 505.457 272.096C508.009 271.003 509.358 268.7 510.046 266.963C511.822 262.465 511.408 256.427 508.942 250.812C507.049 246.5 504.069 242.845 500.557 240.52C499.056 239.527 498.226 237.785 498.406 235.995C502.341 196.775 508.148 99.1798 477.416 37.713L477.122 37.4244C476.098 36.4228 475.574 35.016 475.688 33.5843C475.799 32.1554 476.539 30.8485 477.708 30.0189C478.931 29.1477 479.897 28.3541 480.743 27.5106C484.533 23.7787 486.88 19.0535 486.88 15.1801C486.88 13.4237 486.4 12.0642 485.465 11.1347C482.605 8.32394 475.013 9.53646 468.676 15.7905C466.492 17.9436 463.462 23.0545 462.317 26.0151C461.592 27.8797 459.794 29.106 457.797 29.106H336.57C334.572 29.106 332.771 27.8797 332.047 26.0151L331.353 24.145C330.371 21.4647 328.895 17.4192 327.241 15.7905C320.904 9.53923 313.315 8.32394 310.455 11.1347C309.517 12.0642 309.037 13.4237 309.037 15.1745C309.037 19.048 311.39 23.7732 315.174 27.5106C317.25 29.5555 319.616 31.1565 322.211 32.2664C323.434 32.7852 324.389 33.7897 324.855 35.0355C325.318 36.2813 325.246 37.6631 324.666 38.8562C294.509 100.492 300.302 197.255 304.189 235.995C304.367 237.787 303.54 239.527 302.039 240.523C298.526 242.848 295.546 246.502 293.654 250.812C291.185 256.433 290.768 262.471 292.544 266.963C293.232 268.702 294.586 271.003 297.139 272.096C303.032 274.607 311.398 269.091 315.393 260.007C316.539 257.393 317.23 254.613 317.452 251.744C317.646 249.219 319.755 247.268 322.286 247.268Z" fill="white"/>
<path d="M399.962 110.708C398.808 110.708 397.651 110.298 396.732 109.476C396.255 109.052 385.093 98.9272 385.093 86.1888C385.093 73.4116 396.305 63.5394 396.785 63.1232C398.614 61.5416 401.31 61.5416 403.139 63.1232C403.619 63.5394 414.831 73.4116 414.831 86.1888C414.831 98.9272 403.672 109.052 403.192 109.476C402.273 110.298 401.119 110.708 399.962 110.708ZM399.962 73.8833C397.604 76.8216 394.79 81.3443 394.79 86.1888C394.79 91.0417 397.592 95.6421 399.962 98.6664C402.329 95.6448 405.134 91.0417 405.134 86.1888C405.134 81.3443 402.326 76.8216 399.962 73.8833Z" fill="white"/>
<path d="M403.092 130.065C402.373 130.065 401.924 130.045 401.824 130.037C399.357 129.898 397.39 127.934 397.254 125.464C397.215 124.832 396.48 109.782 405.489 100.775C414.529 91.73 429.448 92.6762 430.07 92.7344C432.475 92.9037 434.387 94.8182 434.559 97.2238C434.606 97.8537 435.558 112.759 426.518 121.799C418.918 129.404 407.004 130.065 403.092 130.065ZM424.709 102.584C420.958 102.995 415.775 104.202 412.345 107.632C408.918 111.061 407.642 116.297 407.179 120.109C410.991 119.646 416.23 118.372 419.662 114.943C423.089 111.513 424.298 106.333 424.709 102.584Z" fill="white"/>
<path d="M396.832 130.064C392.92 130.064 381.011 129.404 373.406 121.801C364.371 112.761 365.323 97.8533 365.37 97.2235C365.542 94.8178 367.454 92.9061 369.86 92.7341C370.492 92.6925 385.406 91.7352 394.435 100.775C403.441 109.784 402.709 124.831 402.67 125.467C402.534 127.933 400.57 129.898 398.1 130.036C398 130.045 397.551 130.064 396.832 130.064ZM380.262 114.942C383.677 118.355 388.924 119.632 392.745 120.1C392.282 116.291 391.008 111.061 387.579 107.631C384.152 104.202 378.969 102.995 375.22 102.584C375.631 106.327 376.838 111.513 380.262 114.942Z" fill="white"/>
<path d="M403.092 159.678C402.368 159.678 401.924 159.659 401.824 159.65C399.357 159.512 397.39 157.547 397.254 155.081C397.215 154.445 396.48 139.393 405.489 130.383C414.529 121.344 429.448 122.301 430.07 122.348C432.475 122.52 434.387 124.432 434.559 126.837C434.606 127.467 435.558 142.373 426.518 151.412C418.918 159.021 407.004 159.678 403.092 159.678ZM424.709 132.198C420.958 132.606 415.775 133.813 412.345 137.24C408.932 140.655 407.659 145.902 407.19 149.723C411.002 149.259 416.232 147.986 419.662 144.556C423.089 141.13 424.298 135.949 424.709 132.198Z" fill="white"/>
<path d="M396.832 159.678C392.92 159.678 381.011 159.02 373.406 151.415C364.371 142.375 365.323 127.467 365.37 126.837C365.542 124.434 367.454 122.52 369.86 122.351C370.49 122.292 385.395 121.346 394.435 130.386C403.441 139.393 402.709 154.445 402.67 155.08C402.534 157.547 400.57 159.512 398.1 159.65C398 159.659 397.551 159.678 396.832 159.678ZM380.262 144.559C383.677 147.972 388.924 149.245 392.745 149.714C392.282 145.902 391.008 140.669 387.579 137.242C384.166 133.829 378.974 132.62 375.22 132.203C375.631 135.949 376.838 141.132 380.262 144.559Z" fill="white"/>
<path d="M403.092 187.011C402.373 187.011 401.924 186.992 401.824 186.983C399.357 186.845 397.39 184.88 397.254 182.411C397.215 181.778 396.48 166.728 405.489 157.722C414.529 148.677 429.448 149.634 430.07 149.681C432.475 149.853 434.387 151.765 434.559 154.17C434.606 154.8 435.558 169.706 426.518 178.745C418.918 186.351 407.004 187.011 403.092 187.011ZM424.709 159.531C420.958 159.942 415.775 161.151 412.345 164.578C408.918 168.008 407.642 173.243 407.179 177.056C410.991 176.592 416.23 175.319 419.662 171.889C423.089 168.463 424.298 163.282 424.709 159.531Z" fill="white"/>
<path d="M396.832 187.011C392.92 187.011 381.011 186.351 373.406 178.749C364.371 169.709 365.323 154.801 365.37 154.171C365.542 151.765 367.454 149.853 369.86 149.681C370.492 149.64 385.406 148.682 394.435 157.722C403.441 166.732 402.709 181.778 402.67 182.414C402.534 184.881 400.57 186.845 398.1 186.984C398 186.992 397.551 187.011 396.832 187.011ZM380.262 171.89C383.677 175.302 388.924 176.579 392.745 177.048C392.282 173.238 391.008 168.008 387.579 164.578C384.152 161.152 378.969 159.942 375.22 159.531C375.631 163.277 376.838 168.463 380.262 171.89Z" fill="white"/>
<path d="M399.607 227.915C399.601 227.915 399.599 227.915 399.593 227.915C396.913 227.904 394.748 225.726 394.757 223.051L395.115 105.845C395.123 103.17 397.293 101.011 399.962 101.011H399.976C402.656 101.02 404.82 103.198 404.812 105.875L404.457 223.079C404.446 225.757 402.279 227.915 399.607 227.915Z" fill="white"/>
</g>
<path d="M1.34046 165.063L251.753 165.063L251.753 160.063L1.34046 160.063L1.34046 165.063ZM552.247 165.063L802.659 165.063L802.66 160.063L552.247 160.063L552.247 165.063ZM1.34051 128.117L251.753 128.117L251.753 123.117L1.34051 123.117L1.34051 128.117ZM552.247 128.117L802.66 128.117L802.66 123.117L552.247 123.117L552.247 128.117ZM1.34046 167.563L251.753 167.563L251.753 157.563L1.34046 157.563L1.34046 167.563ZM552.247 167.563L802.66 167.563L802.66 157.563L552.247 157.563L552.247 167.563ZM1.34051 130.617L251.753 130.617L251.753 120.617L1.34051 120.617L1.34051 130.617ZM552.247 130.617L802.66 130.617L802.66 120.617L552.247 120.617L552.247 130.617Z" fill="white"/>
<path d="M317.25 311.9C319.317 311.9 321.05 312.183 322.45 312.75C323.883 313.317 325.283 314.117 326.65 315.15C327.05 315.45 327.383 315.6 327.65 315.6C327.983 315.6 328.25 315.367 328.45 314.9C328.65 314.4 328.8 313.633 328.9 312.6H330.05C329.917 314.867 329.85 318.9 329.85 324.7H328.7C328.433 322.433 328.033 320.6 327.5 319.2C327 317.8 326.15 316.617 324.95 315.65C324.15 314.883 323.167 314.283 322 313.85C320.833 313.417 319.633 313.2 318.4 313.2C316.067 313.2 314.117 314 312.55 315.6C311.017 317.167 309.883 319.25 309.15 321.85C308.417 324.45 308.05 327.3 308.05 330.4C308.05 341.933 311.25 347.7 317.65 347.7C319.117 347.7 320.3 347.367 321.2 346.7C321.633 346.4 321.933 346.05 322.1 345.65C322.3 345.25 322.4 344.733 322.4 344.1V339.2C322.4 337.633 322.267 336.5 322 335.8C321.733 335.067 321.25 334.567 320.55 334.3C319.883 334.033 318.817 333.867 317.35 333.8V332.8C319.417 332.9 322.267 332.95 325.9 332.95C328.867 332.95 331.1 332.9 332.6 332.8V333.8C331.933 333.867 331.45 334 331.15 334.2C330.85 334.4 330.633 334.783 330.5 335.35C330.4 335.917 330.35 336.833 330.35 338.1V348H329.35C329.317 347.3 329.167 346.65 328.9 346.05C328.667 345.45 328.333 345.15 327.9 345.15C327.333 345.15 326.433 345.5 325.2 346.2C322.3 347.867 319.567 348.7 317 348.7C311.233 348.7 306.817 347.133 303.75 344C300.683 340.833 299.15 336.4 299.15 330.7C299.15 326.967 299.917 323.683 301.45 320.85C303.017 318.017 305.167 315.817 307.9 314.25C310.633 312.683 313.75 311.9 317.25 311.9ZM351.218 313.6C350.018 313.667 349.134 313.8 348.568 314C348.034 314.2 347.668 314.583 347.468 315.15C347.268 315.717 347.168 316.633 347.168 317.9V343.3C347.168 344.367 347.251 345.15 347.418 345.65C347.584 346.117 347.868 346.433 348.268 346.6C348.701 346.767 349.384 346.85 350.318 346.85H352.768C355.034 346.85 356.984 345.833 358.618 343.8C360.284 341.767 361.368 339.067 361.868 335.7H363.018C362.918 336.833 362.868 338.3 362.868 340.1C362.868 343.3 362.984 345.933 363.218 348C360.951 347.9 357.134 347.85 351.768 347.85C344.501 347.85 339.068 347.9 335.468 348V347C336.568 346.933 337.368 346.8 337.868 346.6C338.401 346.4 338.751 346.017 338.918 345.45C339.118 344.883 339.218 343.967 339.218 342.7V317.9C339.218 316.633 339.118 315.717 338.918 315.15C338.751 314.583 338.401 314.2 337.868 314C337.368 313.8 336.568 313.667 335.468 313.6V312.6C337.168 312.7 339.801 312.75 343.368 312.75C346.768 312.75 349.384 312.7 351.218 312.6V313.6ZM397.64 313.6C396.54 313.767 395.723 314.05 395.19 314.45C394.69 314.85 394.34 315.483 394.14 316.35C393.973 317.217 393.89 318.5 393.89 320.2V333.45C393.89 338.217 393.207 341.75 391.84 344.05C390.94 345.517 389.64 346.667 387.94 347.5C386.24 348.3 384.157 348.7 381.69 348.7C377.823 348.7 374.823 347.867 372.69 346.2C371.157 344.967 370.123 343.417 369.59 341.55C369.057 339.65 368.79 337 368.79 333.6V317.9C368.79 316.633 368.69 315.717 368.49 315.15C368.323 314.583 367.973 314.2 367.44 314C366.94 313.8 366.14 313.667 365.04 313.6V312.6C366.74 312.7 369.34 312.75 372.84 312.75C376.307 312.75 378.957 312.7 380.79 312.6V313.6C379.59 313.667 378.707 313.8 378.14 314C377.607 314.2 377.24 314.583 377.04 315.15C376.84 315.717 376.74 316.633 376.74 317.9V336.75C376.74 340.25 377.24 342.833 378.24 344.5C379.273 346.133 381.073 346.95 383.64 346.95C386.973 346.95 389.323 345.833 390.69 343.6C392.057 341.333 392.74 338.133 392.74 334V320.8C392.74 318.867 392.623 317.433 392.39 316.5C392.157 315.567 391.707 314.9 391.04 314.5C390.373 314.067 389.323 313.767 387.89 313.6V312.6C389.157 312.7 390.957 312.75 393.29 312.75C395.157 312.75 396.607 312.7 397.64 312.6V313.6ZM430.663 312.6C430.429 315.767 430.313 318.6 430.313 321.1C430.313 322.667 430.363 323.933 430.463 324.9H429.313C428.513 320.8 427.413 317.917 426.013 316.25C424.646 314.583 422.763 313.75 420.363 313.75H419.213V342.3C419.213 343.7 419.346 344.717 419.613 345.35C419.913 345.983 420.413 346.417 421.113 346.65C421.846 346.85 422.996 346.967 424.563 347V348C420.363 347.9 417.196 347.85 415.063 347.85C412.963 347.85 409.913 347.9 405.912 348V347C407.479 346.967 408.613 346.85 409.313 346.65C410.046 346.417 410.546 345.983 410.813 345.35C411.113 344.717 411.263 343.7 411.263 342.3V313.75H410.163C408.563 313.75 407.196 314.1 406.063 314.8C404.963 315.5 404.013 316.667 403.213 318.3C402.413 319.9 401.729 322.1 401.163 324.9H400.013C400.113 323.933 400.163 322.667 400.163 321.1C400.163 318.6 400.046 315.767 399.813 312.6C402.846 312.7 407.996 312.75 415.263 312.75C422.529 312.75 427.663 312.7 430.663 312.6ZM461.061 340.4C461.061 343.467 461.178 346 461.411 348C459.144 347.9 455.328 347.85 449.961 347.85C442.694 347.85 437.261 347.9 433.661 348V347C434.761 346.933 435.561 346.8 436.061 346.6C436.594 346.4 436.944 346.017 437.111 345.45C437.311 344.883 437.411 343.967 437.411 342.7V317.9C437.411 316.633 437.311 315.717 437.111 315.15C436.944 314.583 436.594 314.2 436.061 314C435.561 313.8 434.761 313.667 433.661 313.6V312.6C437.261 312.7 442.694 312.75 449.961 312.75C454.861 312.75 458.344 312.7 460.411 312.6C460.178 315.367 460.061 317.833 460.061 320C460.061 321.467 460.111 322.6 460.211 323.4H459.061C458.561 319.833 457.661 317.333 456.361 315.9C455.061 314.467 453.228 313.75 450.861 313.75H448.811C447.778 313.75 447.028 313.833 446.561 314C446.094 314.167 445.778 314.5 445.611 315C445.444 315.467 445.361 316.233 445.361 317.3V329.7H446.961C448.728 329.7 450.061 329.05 450.961 327.75C451.894 326.45 452.544 324.9 452.911 323.1H454.061C453.961 324.5 453.911 326.067 453.911 327.8V330.2C453.911 331.9 454.011 334.267 454.211 337.3H453.061C452.361 332.9 450.328 330.7 446.961 330.7H445.361V343.3C445.361 344.367 445.444 345.15 445.611 345.65C445.778 346.117 446.094 346.433 446.561 346.6C447.028 346.767 447.778 346.85 448.811 346.85H451.261C453.628 346.85 455.528 346.05 456.961 344.45C458.428 342.817 459.461 340.067 460.061 336.2H461.211C461.111 337.3 461.061 338.7 461.061 340.4ZM498.3 313.6C497.2 313.767 496.384 314.05 495.85 314.45C495.35 314.85 495 315.483 494.8 316.35C494.634 317.217 494.55 318.5 494.55 320.2V348.1L493.35 348.05L492 348.1L470.3 320.6V339.8C470.3 341.767 470.4 343.217 470.6 344.15C470.8 345.05 471.234 345.717 471.9 346.15C472.567 346.55 473.65 346.833 475.15 347V348C473.85 347.9 472.05 347.85 469.75 347.85C467.917 347.85 466.467 347.9 465.4 348V347C466.5 346.833 467.3 346.55 467.8 346.15C468.334 345.75 468.684 345.117 468.85 344.25C469.05 343.383 469.15 342.1 469.15 340.4V317.9C469.15 316.633 469.05 315.717 468.85 315.15C468.684 314.583 468.334 314.2 467.8 314C467.3 313.8 466.5 313.667 465.4 313.6V312.6C466.467 312.7 467.917 312.75 469.75 312.75C471.417 312.75 472.85 312.7 474.05 312.6L493.4 336.45V320.8C493.4 318.833 493.3 317.4 493.1 316.5C492.9 315.567 492.467 314.9 491.8 314.5C491.134 314.067 490.05 313.767 488.55 313.6V312.6C489.85 312.7 491.65 312.75 493.95 312.75C495.817 312.75 497.267 312.7 498.3 312.6V313.6Z" fill="#FFFCFC"/>
<defs>
<clipPath id="clip0">
<rect width="282.432" height="282.432" fill="white" transform="translate(260)"/>
</clipPath>
</defs>
</svg>
